<svg xmlns="http://www.w3.org/2000/svg" xmlns:xlink="http://www.w3.org/1999/xlink" width="500" zoomAndPan="magnify" viewBox="0 0 375 374.999991" height="500" preserveAspectRatio="xMidYMid meet" version="1.2"><defs><clipPath id="c82e5d516d"><path d="M 163.734375 84.867188 L 341.789062 84.867188 L 341.789062 99.503906 L 163.734375 99.503906 Z M 327.15625 99.503906 L 341.789062 99.503906 L 341.789062 262.925781 L 327.15625 262.925781 Z M 327.15625 99.503906 "/></clipPath><clipPath id="ebfad8716b"><path d="M 25.453125 157.195312 L 40.089844 157.195312 L 40.089844 188.660156 L 25.453125 188.660156 Z M 25.453125 188.660156 L 40.089844 188.660156 L 40.089844 320.617188 L 25.453125 320.617188 Z M 25.453125 320.617188 L 203.511719 320.617188 L 203.511719 335.25 L 25.453125 335.25 Z M 25.453125 320.617188 "/></clipPath><clipPath id="7e6010e000"><path d="M 159.140625 136.371094 L 363.054688 136.371094 L 363.054688 310.15625 L 159.140625 310.15625 Z M 159.140625 136.371094 "/></clipPath><clipPath id="969f25a9b1"><path d="M 6.167969 64 L 233 64 L 233 303 L 6.167969 303 Z M 6.167969 64 "/></clipPath></defs><g id="e5f79e6335"><g clip-rule="nonzero" clip-path="url(#c82e5d516d)"><path style=" stroke:none;fill-rule:nonzero;fill:#fbccd4;fill-opacity:1;" d="M 341.789062 84.867188 L 341.789062 262.925781 L 163.734375 262.925781 L 163.734375 84.867188 Z M 341.789062 84.867188 "/></g><g clip-rule="nonzero" clip-path="url(#ebfad8716b)"><path style=" stroke:none;fill-rule:nonzero;fill:#f2e4be;fill-opacity:1;" d="M 25.453125 335.25 L 25.453125 157.195312 L 203.511719 157.195312 L 203.511719 335.25 Z M 25.453125 335.25 "/></g><g clip-rule="nonzero" clip-path="url(#7e6010e000)"><path style=" stroke:none;fill-rule:nonzero;fill:#fbdfa2;fill-opacity:1;" d="M 324.914062 286.621094 L 239.886719 286.621094 L 219.226562 310.15625 L 197.375 286.621094 C 176.394531 286.621094 159.230469 269.457031 159.230469 248.480469 L 159.230469 174.578125 C 159.230469 153.597656 176.394531 136.433594 197.375 136.433594 L 324.914062 136.433594 C 345.890625 136.433594 363.054688 153.597656 363.054688 174.578125 L 363.054688 248.480469 C 363.054688 269.457031 345.890625 286.621094 324.914062 286.621094 "/></g><path style=" stroke:none;fill-rule:nonzero;fill:#cdb685;fill-opacity:1;" d="M 171.808594 276.664062 C 224.09375 249.070312 251.808594 194.832031 236.3125 136.433594 L 197.375 136.433594 C 176.394531 136.433594 159.230469 153.597656 159.230469 174.578125 L 159.230469 248.480469 C 159.230469 259.632812 164.113281 269.675781 171.808594 276.664062 "/><g clip-rule="nonzero" clip-path="url(#969f25a9b1)"><path style=" stroke:none;fill-rule:nonzero;fill:#fa9da6;fill-opacity:1;" d="M 232.734375 163.054688 C 232.734375 209 196.601562 247.601562 147.710938 258.507812 C 138.691406 260.519531 153.273438 291.390625 159.230469 302.210938 C 126.253906 302.210938 107.496094 261.175781 101.695312 260.378906 C 47.617188 252.949219 6.265625 212.203125 6.265625 163.054688 C 6.265625 108.636719 56.960938 64.519531 119.5 64.519531 C 182.039062 64.519531 232.734375 108.636719 232.734375 163.054688 "/></g><path style=" stroke:none;fill-rule:nonzero;fill:#fbccd4;fill-opacity:1;" d="M 15.8125 140.722656 C 15.8125 140.722656 33.332031 91.300781 91.511719 76.285156 C 149.695312 61.273438 191.414062 96.308594 191.414062 96.308594 C 191.414062 96.308594 88.695312 37.5 15.8125 140.722656 "/><path style=" stroke:none;fill-rule:nonzero;fill:#f2e4be;fill-opacity:1;" d="M 243.761719 142.386719 C 243.761719 142.386719 297.398438 142.386719 306.9375 142.386719 C 316.46875 142.386719 338.523438 140.597656 344.183594 149.242188 C 344.183594 149.242188 329.878906 147.75 297.101562 147.75 C 264.324219 147.75 243.761719 147.453125 243.761719 147.453125 L 243.761719 142.386719 "/><g style="fill:#fbdfa2;fill-opacity:1;"><g transform="translate(17.075422, 186.425731)"><path style="stroke:none" d="M 27.609375 0 L 4.25 0 L 4.25 -39.359375 L 27.609375 -39.359375 L 27.609375 -30.8125 L 14.890625 -30.8125 L 14.890625 -24.625 L 26.671875 -24.625 L 26.671875 -16.09375 L 14.890625 -16.09375 L 14.890625 -8.671875 L 27.609375 -8.671875 Z M 27.609375 0 "/></g></g><g style="fill:#ffffff;fill-opacity:1;"><g transform="translate(47.333233, 186.425731)"><path style="stroke:none" d="M 22.71875 -31.03125 C 25.851562 -31.03125 28.414062 -30.140625 30.40625 -28.359375 C 32.40625 -26.585938 33.40625 -23.75 33.40625 -19.84375 L 33.40625 0 L 22.875 0 L 22.875 -16.640625 C 22.875 -18.660156 22.582031 -20.1875 22 -21.21875 C 21.414062 -22.25 20.476562 -22.765625 19.1875 -22.765625 C 17.195312 -22.765625 15.859375 -21.953125 15.171875 -20.328125 C 14.492188 -18.710938 14.15625 -16.382812 14.15625 -13.34375 L 14.15625 0 L 3.640625 0 L 3.640625 -30.5 L 11.578125 -30.5 L 13 -26.453125 L 13.40625 -26.453125 C 14.050781 -27.421875 14.820312 -28.242188 15.71875 -28.921875 C 16.613281 -29.609375 17.644531 -30.128906 18.8125 -30.484375 C 19.976562 -30.847656 21.28125 -31.03125 22.71875 -31.03125 Z M 22.71875 -31.03125 "/></g></g><g style="fill:#ffffff;fill-opacity:1;"><g transform="translate(84.262674, 186.425731)"><path style="stroke:none" d="M 14.046875 13.25 C 9.722656 13.25 6.390625 12.523438 4.046875 11.078125 C 1.703125 9.628906 0.53125 7.550781 0.53125 4.84375 C 0.53125 3.03125 1.097656 1.53125 2.234375 0.34375 C 3.367188 -0.832031 5.066406 -1.679688 7.328125 -2.203125 C 6.390625 -2.597656 5.570312 -3.234375 4.875 -4.109375 C 4.1875 -4.992188 3.84375 -5.867188 3.84375 -6.734375 C 3.84375 -7.679688 4.101562 -8.519531 4.625 -9.25 C 5.144531 -9.976562 6.234375 -10.84375 7.890625 -11.84375 C 6.304688 -12.539062 5.0625 -13.632812 4.15625 -15.125 C 3.25 -16.613281 2.796875 -18.425781 2.796875 -20.5625 C 2.796875 -22.769531 3.300781 -24.65625 4.3125 -26.21875 C 5.332031 -27.78125 6.816406 -28.972656 8.765625 -29.796875 C 10.710938 -30.617188 13.082031 -31.03125 15.875 -31.03125 C 16.257812 -31.03125 16.835938 -31 17.609375 -30.9375 C 18.378906 -30.875 19.15625 -30.800781 19.9375 -30.71875 C 20.726562 -30.644531 21.34375 -30.570312 21.78125 -30.5 L 32.40625 -30.5 L 32.40625 -25.40625 L 28.234375 -23.875 C 28.523438 -23.351562 28.738281 -22.785156 28.875 -22.171875 C 29.019531 -21.566406 29.09375 -20.921875 29.09375 -20.234375 C 29.09375 -16.953125 27.9375 -14.40625 25.625 -12.59375 C 23.320312 -10.78125 19.882812 -9.875 15.3125 -9.875 C 14.1875 -9.875 13.289062 -9.945312 12.625 -10.09375 C 12.5 -9.863281 12.40625 -9.632812 12.34375 -9.40625 C 12.28125 -9.1875 12.25 -8.976562 12.25 -8.78125 C 12.25 -8.363281 12.492188 -8.03125 12.984375 -7.78125 C 13.484375 -7.539062 14.085938 -7.375 14.796875 -7.28125 C 15.503906 -7.195312 16.179688 -7.15625 16.828125 -7.15625 L 21.890625 -7.15625 C 25.316406 -7.15625 27.878906 -6.4375 29.578125 -5 C 31.285156 -3.570312 32.140625 -1.410156 32.140625 1.484375 C 32.140625 5.191406 30.554688 8.078125 27.390625 10.140625 C 24.222656 12.210938 19.773438 13.25 14.046875 13.25 Z M 14.5625 6.671875 C 15.832031 6.671875 17.113281 6.554688 18.40625 6.328125 C 19.695312 6.109375 20.78125 5.75 21.65625 5.25 C 22.539062 4.75 22.984375 4.082031 22.984375 3.25 C 22.984375 2.625 22.722656 2.15625 22.203125 1.84375 C 21.679688 1.53125 21.007812 1.316406 20.1875 1.203125 C 19.363281 1.097656 18.492188 1.046875 17.578125 1.046875 L 13.484375 1.046875 C 12.734375 1.046875 12.046875 1.164062 11.421875 1.40625 C 10.804688 1.65625 10.316406 1.984375 9.953125 2.390625 C 9.597656 2.804688 9.421875 3.273438 9.421875 3.796875 C 9.421875 4.660156 9.882812 5.351562 10.8125 5.875 C 11.75 6.40625 13 6.671875 14.5625 6.671875 Z M 15.984375 -15.828125 C 16.992188 -15.828125 17.769531 -16.210938 18.3125 -16.984375 C 18.863281 -17.753906 19.140625 -18.910156 19.140625 -20.453125 C 19.140625 -22.035156 18.878906 -23.21875 18.359375 -24 C 17.835938 -24.789062 17.046875 -25.1875 15.984375 -25.1875 C 14.890625 -25.1875 14.070312 -24.796875 13.53125 -24.015625 C 13 -23.242188 12.734375 -22.078125 12.734375 -20.515625 C 12.734375 -18.953125 13 -17.78125 13.53125 -17 C 14.070312 -16.21875 14.890625 -15.828125 15.984375 -15.828125 Z M 15.984375 -15.828125 "/></g></g><g style="fill:#ffffff;fill-opacity:1;"><g transform="translate(117.666053, 186.425731)"><path style="stroke:none" d="M 14.15625 0 L 3.640625 0 L 3.640625 -41.875 L 14.15625 -41.875 Z M 14.15625 0 "/></g></g><g style="fill:#ffffff;fill-opacity:1;"><g transform="translate(135.484778, 186.425731)"><path style="stroke:none" d="M 14.21875 -30.5 L 14.21875 0 L 3.6875 0 L 3.6875 -30.5 Z M 8.984375 -42.765625 C 10.492188 -42.765625 11.804688 -42.453125 12.921875 -41.828125 C 14.046875 -41.203125 14.609375 -39.957031 14.609375 -38.09375 C 14.609375 -36.28125 14.046875 -35.050781 12.921875 -34.40625 C 11.804688 -33.769531 10.492188 -33.453125 8.984375 -33.453125 C 7.441406 -33.453125 6.128906 -33.769531 5.046875 -34.40625 C 3.960938 -35.050781 3.421875 -36.28125 3.421875 -38.09375 C 3.421875 -39.957031 3.960938 -41.203125 5.046875 -41.828125 C 6.128906 -42.453125 7.441406 -42.765625 8.984375 -42.765625 Z M 8.984375 -42.765625 "/></g></g><g style="fill:#ffffff;fill-opacity:1;"><g transform="translate(153.411168, 186.425731)"><path style="stroke:none" d="M 26.296875 -9.359375 C 26.296875 -7.421875 25.863281 -5.707031 25 -4.21875 C 24.144531 -2.726562 22.769531 -1.5625 20.875 -0.71875 C 18.976562 0.113281 16.488281 0.53125 13.40625 0.53125 C 11.226562 0.53125 9.28125 0.414062 7.5625 0.1875 C 5.851562 -0.0390625 4.125 -0.488281 2.375 -1.15625 L 2.375 -9.578125 C 4.289062 -8.703125 6.242188 -8.070312 8.234375 -7.6875 C 10.222656 -7.300781 11.796875 -7.109375 12.953125 -7.109375 C 14.128906 -7.109375 14.988281 -7.238281 15.53125 -7.5 C 16.082031 -7.757812 16.359375 -8.148438 16.359375 -8.671875 C 16.359375 -9.117188 16.175781 -9.5 15.8125 -9.8125 C 15.445312 -10.125 14.789062 -10.484375 13.84375 -10.890625 C 12.90625 -11.304688 11.582031 -11.863281 9.875 -12.5625 C 8.1875 -13.269531 6.78125 -14.035156 5.65625 -14.859375 C 4.539062 -15.679688 3.703125 -16.664062 3.140625 -17.8125 C 2.585938 -18.96875 2.3125 -20.378906 2.3125 -22.046875 C 2.3125 -25.023438 3.457031 -27.265625 5.75 -28.765625 C 8.050781 -30.273438 11.097656 -31.03125 14.890625 -31.03125 C 16.898438 -31.03125 18.789062 -30.8125 20.5625 -30.375 C 22.34375 -29.9375 24.179688 -29.296875 26.078125 -28.453125 L 23.203125 -21.671875 C 21.691406 -22.347656 20.164062 -22.890625 18.625 -23.296875 C 17.082031 -23.710938 15.851562 -23.921875 14.9375 -23.921875 C 14.113281 -23.921875 13.476562 -23.8125 13.03125 -23.59375 C 12.582031 -23.382812 12.359375 -23.070312 12.359375 -22.65625 C 12.359375 -22.28125 12.515625 -21.945312 12.828125 -21.65625 C 13.140625 -21.375 13.734375 -21.046875 14.609375 -20.671875 C 15.492188 -20.296875 16.78125 -19.765625 18.46875 -19.078125 C 20.238281 -18.359375 21.703125 -17.59375 22.859375 -16.78125 C 24.023438 -15.96875 24.890625 -14.976562 25.453125 -13.8125 C 26.015625 -12.644531 26.296875 -11.160156 26.296875 -9.359375 Z M 26.296875 -9.359375 "/></g></g><g style="fill:#ffffff;fill-opacity:1;"><g transform="translate(181.915744, 186.425731)"><path style="stroke:none" d="M 14.15625 -41.875 L 14.15625 -35.9375 C 14.15625 -33.675781 14.101562 -31.773438 14 -30.234375 C 13.90625 -28.703125 13.816406 -27.535156 13.734375 -26.734375 L 14.21875 -26.734375 C 14.875 -27.785156 15.625 -28.625 16.46875 -29.25 C 17.3125 -29.882812 18.242188 -30.335938 19.265625 -30.609375 C 20.296875 -30.890625 21.410156 -31.03125 22.609375 -31.03125 C 24.617188 -31.03125 26.4375 -30.644531 28.0625 -29.875 C 29.6875 -29.101562 30.984375 -27.894531 31.953125 -26.25 C 32.921875 -24.613281 33.40625 -22.476562 33.40625 -19.84375 L 33.40625 0 L 22.828125 0 L 22.828125 -16.640625 C 22.828125 -18.660156 22.53125 -20.1875 21.9375 -21.21875 C 21.34375 -22.25 20.425781 -22.765625 19.1875 -22.765625 C 17.914062 -22.765625 16.910156 -22.398438 16.171875 -21.671875 C 15.441406 -20.953125 14.921875 -19.894531 14.609375 -18.5 C 14.304688 -17.113281 14.15625 -15.414062 14.15625 -13.40625 L 14.15625 0 L 3.640625 0 L 3.640625 -41.875 Z M 14.15625 -41.875 "/></g></g><g style="fill:#ffffff;fill-opacity:1;"><g transform="translate(233.460473, 236.816728)"><path style="stroke:none" d="M 17.515625 0.53125 C 14.429688 0.53125 11.75 -0.015625 9.46875 -1.109375 C 7.195312 -2.210938 5.4375 -3.914062 4.1875 -6.21875 C 2.9375 -8.53125 2.3125 -11.488281 2.3125 -15.09375 C 2.3125 -18.789062 3.003906 -21.816406 4.390625 -24.171875 C 5.785156 -26.523438 7.691406 -28.253906 10.109375 -29.359375 C 12.535156 -30.472656 15.285156 -31.03125 18.359375 -31.03125 C 20.222656 -31.03125 21.992188 -30.820312 23.671875 -30.40625 C 25.347656 -30 26.90625 -29.4375 28.34375 -28.71875 L 25.25 -20.9375 C 23.988281 -21.5 22.816406 -21.941406 21.734375 -22.265625 C 20.648438 -22.597656 19.523438 -22.765625 18.359375 -22.765625 C 17.296875 -22.765625 16.359375 -22.488281 15.546875 -21.9375 C 14.742188 -21.382812 14.117188 -20.546875 13.671875 -19.421875 C 13.222656 -18.296875 13 -16.875 13 -15.15625 C 13 -13.394531 13.226562 -11.972656 13.6875 -10.890625 C 14.144531 -9.816406 14.78125 -9.035156 15.59375 -8.546875 C 16.414062 -8.066406 17.351562 -7.828125 18.40625 -7.828125 C 19.9375 -7.828125 21.457031 -8.066406 22.96875 -8.546875 C 24.488281 -9.023438 25.929688 -9.6875 27.296875 -10.53125 L 27.296875 -2.15625 C 26.035156 -1.332031 24.613281 -0.675781 23.03125 -0.1875 C 21.457031 0.289062 19.617188 0.53125 17.515625 0.53125 Z M 17.515625 0.53125 "/></g></g><g style="fill:#ffffff;fill-opacity:1;"><g transform="translate(263.172519, 236.816728)"><path style="stroke:none" d="M 14.15625 0 L 3.640625 0 L 3.640625 -41.875 L 14.15625 -41.875 Z M 14.15625 0 "/></g></g><g style="fill:#ffffff;fill-opacity:1;"><g transform="translate(280.988981, 236.816728)"><path style="stroke:none" d="M 33.296875 -30.5 L 33.296875 0 L 25.359375 0 L 24.03125 -3.796875 L 23.421875 -3.796875 C 22.785156 -2.773438 21.988281 -1.941406 21.03125 -1.296875 C 20.070312 -0.660156 19.007812 -0.195312 17.84375 0.09375 C 16.675781 0.382812 15.46875 0.53125 14.21875 0.53125 C 12.21875 0.53125 10.414062 0.144531 8.8125 -0.625 C 7.207031 -1.394531 5.929688 -2.601562 4.984375 -4.25 C 4.046875 -5.90625 3.578125 -8.03125 3.578125 -10.625 L 3.578125 -30.5 L 14.109375 -30.5 L 14.109375 -13.828125 C 14.109375 -11.859375 14.390625 -10.359375 14.953125 -9.328125 C 15.515625 -8.296875 16.441406 -7.78125 17.734375 -7.78125 C 19.066406 -7.78125 20.09375 -8.140625 20.8125 -8.859375 C 21.539062 -9.578125 22.046875 -10.632812 22.328125 -12.03125 C 22.617188 -13.425781 22.765625 -15.128906 22.765625 -17.140625 L 22.765625 -30.5 Z M 33.296875 -30.5 "/></g></g><g style="fill:#ffffff;fill-opacity:1;"><g transform="translate(317.913734, 236.816728)"><path style="stroke:none" d="M 14.15625 -41.875 L 14.15625 -32.40625 C 14.15625 -31.332031 14.117188 -30.304688 14.046875 -29.328125 C 13.972656 -28.347656 13.882812 -27.425781 13.78125 -26.5625 L 14.15625 -26.5625 C 14.945312 -27.800781 15.976562 -28.851562 17.25 -29.71875 C 18.53125 -30.59375 20.203125 -31.03125 22.265625 -31.03125 C 25.441406 -31.03125 28.035156 -29.679688 30.046875 -26.984375 C 32.066406 -24.296875 33.078125 -20.40625 33.078125 -15.3125 C 33.078125 -11.851562 32.609375 -8.941406 31.671875 -6.578125 C 30.742188 -4.222656 29.441406 -2.445312 27.765625 -1.25 C 26.085938 -0.0625 24.144531 0.53125 21.9375 0.53125 C 19.78125 0.53125 18.140625 0.160156 17.015625 -0.578125 C 15.898438 -1.328125 14.945312 -2.128906 14.15625 -2.984375 L 13.515625 -2.984375 L 11.84375 0 L 3.640625 0 L 3.640625 -41.875 Z M 18.40625 -22.765625 C 17.4375 -22.765625 16.640625 -22.539062 16.015625 -22.09375 C 15.390625 -21.644531 14.921875 -20.945312 14.609375 -20 C 14.304688 -19.0625 14.15625 -17.867188 14.15625 -16.421875 L 14.15625 -14.9375 C 14.15625 -12.570312 14.472656 -10.8125 15.109375 -9.65625 C 15.742188 -8.507812 16.878906 -7.9375 18.515625 -7.9375 C 19.753906 -7.9375 20.707031 -8.570312 21.375 -9.84375 C 22.039062 -11.125 22.375 -12.984375 22.375 -15.421875 C 22.375 -17.859375 22.046875 -19.691406 21.390625 -20.921875 C 20.742188 -22.148438 19.75 -22.765625 18.40625 -22.765625 Z M 18.40625 -22.765625 "/></g></g></g></svg>